<mxfile host="app.diagrams.net" agent="Mozilla/5.0 (Macintosh; Intel Mac OS X 10_15_7) AppleWebKit/537.36 (KHTML, like Gecko) Chrome/138.0.0.0 Safari/537.36" version="27.2.0">
  <diagram name="Page-1" id="F9NC8WnpYTE_bZBnmQ9y">
    <mxGraphModel dx="2156" dy="836" grid="1" gridSize="10" guides="1" tooltips="1" connect="1" arrows="1" fold="1" page="1" pageScale="1" pageWidth="850" pageHeight="1100" math="0" shadow="0">
      <root>
        <mxCell id="0" />
        <mxCell id="1" parent="0" />
        <mxCell id="N-6ydNbGBiiCYsGAepjY-4" style="edgeStyle=orthogonalEdgeStyle;rounded=0;orthogonalLoop=1;jettySize=auto;html=1;" edge="1" parent="1" source="N-6ydNbGBiiCYsGAepjY-17" target="N-6ydNbGBiiCYsGAepjY-3">
          <mxGeometry relative="1" as="geometry" />
        </mxCell>
        <mxCell id="N-6ydNbGBiiCYsGAepjY-1" value="Patent Data" style="rounded=0;whiteSpace=wrap;html=1;" vertex="1" parent="1">
          <mxGeometry x="60" y="170" width="120" height="60" as="geometry" />
        </mxCell>
        <mxCell id="N-6ydNbGBiiCYsGAepjY-9" value="" style="edgeStyle=orthogonalEdgeStyle;rounded=0;orthogonalLoop=1;jettySize=auto;html=1;" edge="1" parent="1" source="N-6ydNbGBiiCYsGAepjY-19" target="N-6ydNbGBiiCYsGAepjY-8">
          <mxGeometry relative="1" as="geometry">
            <Array as="points">
              <mxPoint x="480" y="50" />
            </Array>
          </mxGeometry>
        </mxCell>
        <mxCell id="N-6ydNbGBiiCYsGAepjY-3" value="Amazon S3" style="outlineConnect=0;fontColor=#232F3E;gradientColor=none;strokeColor=#ffffff;fillColor=#232F3E;dashed=0;verticalLabelPosition=middle;verticalAlign=bottom;align=center;html=1;whiteSpace=wrap;fontSize=10;fontStyle=1;spacing=3;shape=mxgraph.aws4.productIcon;prIcon=mxgraph.aws4.s3;" vertex="1" parent="1">
          <mxGeometry x="320" y="150" width="80" height="100" as="geometry" />
        </mxCell>
        <mxCell id="N-6ydNbGBiiCYsGAepjY-5" value="Patent Bucket" style="text;html=1;align=center;verticalAlign=middle;resizable=0;points=[];autosize=1;strokeColor=none;fillColor=none;" vertex="1" parent="1">
          <mxGeometry x="310" y="250" width="100" height="30" as="geometry" />
        </mxCell>
        <mxCell id="N-6ydNbGBiiCYsGAepjY-7" style="edgeStyle=orthogonalEdgeStyle;rounded=0;orthogonalLoop=1;jettySize=auto;html=1;entryX=0;entryY=0.5;entryDx=0;entryDy=0;" edge="1" parent="1" source="N-6ydNbGBiiCYsGAepjY-6" target="N-6ydNbGBiiCYsGAepjY-1">
          <mxGeometry relative="1" as="geometry" />
        </mxCell>
        <mxCell id="N-6ydNbGBiiCYsGAepjY-6" value="Source" style="ellipse;whiteSpace=wrap;html=1;" vertex="1" parent="1">
          <mxGeometry x="-110" y="160" width="120" height="80" as="geometry" />
        </mxCell>
        <mxCell id="N-6ydNbGBiiCYsGAepjY-23" style="edgeStyle=orthogonalEdgeStyle;rounded=0;orthogonalLoop=1;jettySize=auto;html=1;" edge="1" parent="1" source="N-6ydNbGBiiCYsGAepjY-8" target="N-6ydNbGBiiCYsGAepjY-13">
          <mxGeometry relative="1" as="geometry" />
        </mxCell>
        <mxCell id="N-6ydNbGBiiCYsGAepjY-8" value="Amazon S3" style="outlineConnect=0;fontColor=#232F3E;gradientColor=none;strokeColor=#ffffff;fillColor=#232F3E;dashed=0;verticalLabelPosition=middle;verticalAlign=bottom;align=center;html=1;whiteSpace=wrap;fontSize=10;fontStyle=1;spacing=3;shape=mxgraph.aws4.productIcon;prIcon=mxgraph.aws4.s3;" vertex="1" parent="1">
          <mxGeometry x="680" y="10" width="80" height="100" as="geometry" />
        </mxCell>
        <mxCell id="N-6ydNbGBiiCYsGAepjY-10" value="Transformed Data" style="text;html=1;align=center;verticalAlign=middle;resizable=0;points=[];autosize=1;strokeColor=none;fillColor=none;" vertex="1" parent="1">
          <mxGeometry x="420" y="250" width="120" height="30" as="geometry" />
        </mxCell>
        <mxCell id="N-6ydNbGBiiCYsGAepjY-14" value="" style="edgeStyle=orthogonalEdgeStyle;rounded=0;orthogonalLoop=1;jettySize=auto;html=1;" edge="1" parent="1" source="N-6ydNbGBiiCYsGAepjY-11" target="N-6ydNbGBiiCYsGAepjY-13">
          <mxGeometry relative="1" as="geometry" />
        </mxCell>
        <mxCell id="N-6ydNbGBiiCYsGAepjY-11" value="" style="shape=cylinder3;whiteSpace=wrap;html=1;boundedLbl=1;backgroundOutline=1;size=15;" vertex="1" parent="1">
          <mxGeometry x="680" y="280" width="60" height="80" as="geometry" />
        </mxCell>
        <mxCell id="N-6ydNbGBiiCYsGAepjY-16" value="" style="edgeStyle=orthogonalEdgeStyle;rounded=0;orthogonalLoop=1;jettySize=auto;html=1;" edge="1" parent="1" source="N-6ydNbGBiiCYsGAepjY-13" target="N-6ydNbGBiiCYsGAepjY-15">
          <mxGeometry relative="1" as="geometry" />
        </mxCell>
        <mxCell id="N-6ydNbGBiiCYsGAepjY-13" value="API" style="whiteSpace=wrap;html=1;" vertex="1" parent="1">
          <mxGeometry x="880" y="160" width="120" height="50" as="geometry" />
        </mxCell>
        <mxCell id="N-6ydNbGBiiCYsGAepjY-15" value="User Interface" style="whiteSpace=wrap;html=1;" vertex="1" parent="1">
          <mxGeometry x="1060" y="155" width="120" height="60" as="geometry" />
        </mxCell>
        <mxCell id="N-6ydNbGBiiCYsGAepjY-18" value="" style="edgeStyle=orthogonalEdgeStyle;rounded=0;orthogonalLoop=1;jettySize=auto;html=1;" edge="1" parent="1" source="N-6ydNbGBiiCYsGAepjY-1" target="N-6ydNbGBiiCYsGAepjY-17">
          <mxGeometry relative="1" as="geometry">
            <mxPoint x="190" y="200" as="sourcePoint" />
            <mxPoint x="300" y="200" as="targetPoint" />
          </mxGeometry>
        </mxCell>
        <mxCell id="N-6ydNbGBiiCYsGAepjY-17" value="Script" style="rounded=0;whiteSpace=wrap;html=1;" vertex="1" parent="1">
          <mxGeometry x="220" y="180" width="40" height="40" as="geometry" />
        </mxCell>
        <mxCell id="N-6ydNbGBiiCYsGAepjY-20" value="" style="edgeStyle=orthogonalEdgeStyle;rounded=0;orthogonalLoop=1;jettySize=auto;html=1;" edge="1" parent="1" source="N-6ydNbGBiiCYsGAepjY-3" target="N-6ydNbGBiiCYsGAepjY-19">
          <mxGeometry relative="1" as="geometry">
            <mxPoint x="380" y="200" as="sourcePoint" />
            <mxPoint x="580" y="200" as="targetPoint" />
          </mxGeometry>
        </mxCell>
        <mxCell id="N-6ydNbGBiiCYsGAepjY-19" value="Script" style="rounded=0;whiteSpace=wrap;html=1;" vertex="1" parent="1">
          <mxGeometry x="460" y="180" width="40" height="40" as="geometry" />
        </mxCell>
        <mxCell id="N-6ydNbGBiiCYsGAepjY-21" style="edgeStyle=orthogonalEdgeStyle;rounded=0;orthogonalLoop=1;jettySize=auto;html=1;entryX=0;entryY=0.5;entryDx=0;entryDy=0;entryPerimeter=0;exitX=0.5;exitY=1;exitDx=0;exitDy=0;" edge="1" parent="1" source="N-6ydNbGBiiCYsGAepjY-19" target="N-6ydNbGBiiCYsGAepjY-11">
          <mxGeometry relative="1" as="geometry" />
        </mxCell>
        <mxCell id="N-6ydNbGBiiCYsGAepjY-22" value="Transformed Data" style="text;html=1;align=center;verticalAlign=middle;resizable=0;points=[];autosize=1;strokeColor=none;fillColor=none;" vertex="1" parent="1">
          <mxGeometry x="420" y="100" width="120" height="30" as="geometry" />
        </mxCell>
        <mxCell id="N-6ydNbGBiiCYsGAepjY-24" value="Patent Database" style="text;html=1;align=center;verticalAlign=middle;resizable=0;points=[];autosize=1;strokeColor=none;fillColor=none;" vertex="1" parent="1">
          <mxGeometry x="655" y="360" width="110" height="30" as="geometry" />
        </mxCell>
        <mxCell id="N-6ydNbGBiiCYsGAepjY-25" value="" style="shape=cylinder3;whiteSpace=wrap;html=1;boundedLbl=1;backgroundOutline=1;size=15;" vertex="1" parent="1">
          <mxGeometry x="680" y="440" width="60" height="80" as="geometry" />
        </mxCell>
        <mxCell id="N-6ydNbGBiiCYsGAepjY-26" value="asset_finance_details" style="text;html=1;align=center;verticalAlign=middle;resizable=0;points=[];autosize=1;strokeColor=none;fillColor=none;" vertex="1" parent="1">
          <mxGeometry x="640" y="530" width="140" height="30" as="geometry" />
        </mxCell>
        <mxCell id="N-6ydNbGBiiCYsGAepjY-27" value="asset_id" style="text;html=1;align=center;verticalAlign=middle;whiteSpace=wrap;rounded=0;" vertex="1" parent="1">
          <mxGeometry x="680" y="560" width="60" height="30" as="geometry" />
        </mxCell>
        <mxCell id="N-6ydNbGBiiCYsGAepjY-28" value="asset_id" style="text;html=1;align=center;verticalAlign=middle;resizable=0;points=[];autosize=1;strokeColor=none;fillColor=none;" vertex="1" parent="1">
          <mxGeometry x="680" y="378" width="70" height="30" as="geometry" />
        </mxCell>
        <mxCell id="N-6ydNbGBiiCYsGAepjY-29" value="" style="shape=cylinder3;whiteSpace=wrap;html=1;boundedLbl=1;backgroundOutline=1;size=15;" vertex="1" parent="1">
          <mxGeometry x="685" y="630" width="60" height="80" as="geometry" />
        </mxCell>
        <mxCell id="N-6ydNbGBiiCYsGAepjY-30" value="" style="shape=cylinder3;whiteSpace=wrap;html=1;boundedLbl=1;backgroundOutline=1;size=15;" vertex="1" parent="1">
          <mxGeometry x="420" y="450" width="60" height="80" as="geometry" />
        </mxCell>
        <mxCell id="N-6ydNbGBiiCYsGAepjY-31" value="asset&lt;div&gt;id&lt;/div&gt;" style="text;html=1;align=center;verticalAlign=middle;whiteSpace=wrap;rounded=0;" vertex="1" parent="1">
          <mxGeometry x="420" y="535" width="60" height="30" as="geometry" />
        </mxCell>
      </root>
    </mxGraphModel>
  </diagram>
</mxfile>
